# xmcd
#
# Track frame offsets: 
#        150
#        11911
#        30828
#        46293
#        62570
#        81265
#        95613
#        109516
#        125580
#        150339
#        170020
#        182622
#        195601
#        211366
#        225767
#
# Disc length: 3285 seconds
#
# Revision: 2
# Processed by: cddbd v1.5.2PL0 Copyright (c) Steve Scherf et al.
# Submitted via: ExactAudioCopy v1.0b3
#
DISCID=b40cd30f
DTITLE=The Blues Band - Thank You Brother Ray
DYEAR=2006
DGENRE=Blues
TTITLE0=Sticks And Stones
TTITLE1=Busted
TTITLE2=Georgia On My Mind
TTITLE3=I Don't Need No Doctor
TTITLE4=Hallelujah I Lover Her So
TTITLE5=They're Crazy 'Bout Me
TTITLE6=I'm Moving On
TTITLE7=Lonely Avenue
TTITLE8=Tell Me What You Want Me To Do
TTITLE9=Leave My Woman Alone
TTITLE10=Hard Times
TTITLE11=Makin' Whoopee
TTITLE12=Losing Hand
TTITLE13=Let The Good Times Roll
TTITLE14=Thenak You Brother Ray
EXTD=Paul Jones: harmonica and vocals\nDave Kelley: slide guitar, dobro,
EXTD=electric, acoustic and wah-wah guitar\nTom McGuinness: lead and rhyt
EXTD=hm guitar and vocals\nGary Fletcher: bass guitar and vocals\nRob Town
EXTD=send: drums and percussion \n(c) 2006
EXTT0=
EXTT1=
EXTT2=
EXTT3=
EXTT4=
EXTT5=
EXTT6=
EXTT7=
EXTT8=
EXTT9=
EXTT10=
EXTT11=
EXTT12=
EXTT13=
EXTT14=
PLAYORDER=
